<svg width="45" height="50" viewBox="0 0 45 50" fill="none" xmlns="http://www.w3.org/2000/svg">
<path d="M10.3821 12.899C9.11239 11.5478 8.34546 10.101 8.02485 8.41201C7.29182 4.55414 9.53752 0.779307 13.0982 0.16565C16.6884 -0.452228 19.7053 0.652634 21.9623 3.57735C22.3352 4.06152 22.636 4.60058 22.9976 5.15513C23.0739 5.04675 23.1544 4.94541 23.2193 4.83563C25.2687 1.4183 28.2503 -0.257997 32.2812 0.0375708C35.1314 0.247284 37.5141 2.55131 38.0113 5.58581C38.4336 8.1657 37.7966 10.4542 36.0947 12.4458C35.9944 12.564 35.8984 12.6851 35.7543 12.8596C35.9379 12.8807 36.065 12.9075 36.1935 12.9075C37.1978 12.9117 38.2034 12.8934 39.2076 12.9131C42.5564 12.9821 44.9814 15.431 44.9899 18.7625C44.9998 22.7302 44.9927 26.6992 44.9927 30.6683C44.9927 35.1989 45.0026 39.7282 44.9885 44.2588C44.9786 47.1582 43.0295 49.4425 40.1737 49.9309C39.7951 49.9957 39.4011 49.9971 39.0155 49.9971C28.3364 49.9999 17.6559 50.0013 6.97686 49.9985C3.4247 49.9985 0.999625 47.5804 0.998212 44.0477C0.995388 35.655 0.995388 27.2608 0.998212 18.8681C0.998212 15.3536 3.45718 12.9061 6.97968 12.9004C8.06722 12.899 9.15335 12.9004 10.3807 12.9004L10.3821 12.899ZM24.7645 46.6065C24.91 46.6135 25.0823 46.6276 25.2532 46.6276C29.8533 46.6276 34.4535 46.6304 39.0536 46.6276C40.6821 46.6276 41.6072 45.7029 41.6072 44.0801C41.6072 35.6859 41.6072 27.2918 41.6072 18.8976C41.6072 17.2242 40.668 16.284 38.9901 16.2826C34.4605 16.2798 29.931 16.2826 25.4015 16.2826H24.7645V46.6079V46.6065ZM21.2293 16.2812H20.7251C16.1602 16.2812 11.5954 16.2798 7.03053 16.2812C5.31165 16.2812 4.38371 17.2087 4.38371 18.9188C4.38371 27.296 4.38371 35.6719 4.38371 44.0491C4.38371 45.7099 5.29753 46.6262 6.95991 46.6262C11.5078 46.6276 16.0543 46.6262 20.6022 46.6262C20.7886 46.6262 20.9736 46.6107 21.2307 46.5994V16.2826L21.2293 16.2812ZM24.6797 12.9595C25.6402 12.9595 26.5342 12.9919 27.4254 12.9525C29.1726 12.8765 30.8604 12.5345 32.301 11.4803C34.0114 10.2276 35.0029 8.59779 34.7388 6.39229C34.5636 4.92852 33.6654 3.8124 32.39 3.53372C30.5991 3.14245 28.9663 3.49431 27.5497 4.68503C27.2701 4.92008 27.006 5.1889 26.7842 5.48025C25.1049 7.68575 24.7744 10.2642 24.6783 12.9609L24.6797 12.9595ZM21.307 12.8878C21.2674 12.3951 21.242 11.9433 21.1926 11.4944C20.9962 9.68717 20.6516 7.91939 19.7449 6.31066C18.6149 4.3022 16.8876 3.38735 14.5783 3.36342C13.0671 3.34794 11.4259 4.24027 11.2536 6.52459C11.0714 8.93981 12.2903 10.6161 14.2747 11.7871C16.4441 13.0665 18.8579 12.9483 21.307 12.8878Z" fill="#FF9066"/>
</svg>
