<svg width="51" height="24" viewBox="0 0 51 24" fill="none" xmlns="http://www.w3.org/2000/svg">
<path d="M0.5 2.885C0.584766 2.69263 0.653882 2.49103 0.755601 2.30789C1.18725 1.52786 1.8406 1.10095 2.73521 1.09831C4.76828 1.09436 6.80265 1.09041 8.83573 1.09831C10.1411 1.10358 11.0683 2.02723 11.1166 3.35539C11.1335 3.84554 11.1192 4.3357 11.1192 4.88778C12.1338 4.62294 13.0857 4.366 14.0416 4.12751C14.9245 3.90747 15.8139 3.71378 16.6968 3.49242C17.9813 3.16961 19.1797 3.60837 20.3795 3.93251C23.0307 4.64797 25.6702 5.40823 28.3097 6.16982C28.6253 6.26073 28.8587 6.21593 29.1273 6.0486C30.76 5.0314 32.4006 4.02737 34.0385 3.02071C35.7234 1.98507 37.4161 2.17349 38.8467 3.55698C38.8923 3.60178 38.9445 3.63999 39.0201 3.70324C39.4544 3.4463 39.8847 3.18805 40.3177 2.93375C41.8787 2.01274 43.6914 2.2196 44.9224 3.50691C45.1846 3.7823 45.3828 3.75199 45.6814 3.65712C47.4067 3.11295 49.2742 3.92723 50.0892 5.56371C50.9017 7.19492 50.4922 9.19901 49.0094 10.2373C43.6131 14.0175 38.2625 17.8742 32.501 21.0839C31.4003 21.6979 30.2293 22.3001 29.0178 22.5596C28.0306 22.7704 26.9156 22.5636 25.8919 22.3646C21.1385 21.441 16.3981 20.4567 11.6526 19.4949C11.4961 19.4632 11.337 19.4448 11.1205 19.4118C11.1205 19.8335 11.127 20.2235 11.1205 20.6148C11.0944 22.0023 10.2037 22.9589 8.83312 22.9799C6.817 23.0116 4.79827 22.9984 2.78215 22.9839C1.60717 22.9747 0.919916 22.279 0.502608 21.2394C0.502608 15.1217 0.502608 9.004 0.502608 2.88764L0.5 2.885ZM37.48 4.62293C36.9714 4.00761 35.8382 3.86531 35.0244 4.38181C33.7712 5.17633 32.501 5.94187 31.2386 6.7219C31.1539 6.7746 31.0795 6.84443 30.9452 6.94984C31.2073 7.0289 31.3977 7.06843 31.5751 7.14222C32.3823 7.47953 33.2378 7.73909 33.9811 8.18708C35.6895 9.21614 36.2946 11.0107 35.6543 12.8159C35.0166 14.6157 33.2313 15.7041 31.3417 15.4695C29.5029 15.2403 27.6602 15.0387 25.8202 14.8134C24.61 14.6658 23.4011 14.4998 22.1935 14.3351C21.6627 14.2626 21.3432 13.8818 21.3954 13.4035C21.4463 12.9331 21.8505 12.6288 22.3774 12.6643C22.4426 12.6683 22.5065 12.6802 22.5717 12.6881C25.605 13.0636 28.637 13.4457 31.6716 13.8107C32.681 13.9319 33.6929 13.2744 34.0633 12.302C34.4389 11.3177 34.182 10.3783 33.2821 9.73923C32.8505 9.43223 32.3589 9.1608 31.8555 9.01455C27.5181 7.74832 23.1755 6.50449 18.825 5.28438C18.3073 5.13944 17.7126 5.04194 17.2028 5.1513C15.3131 5.55713 13.447 6.06968 11.5665 6.51767C11.2144 6.60199 11.1074 6.74693 11.1088 7.10928C11.1231 10.4797 11.1166 13.8502 11.1179 17.2207C11.1179 17.3643 11.1348 17.5092 11.1427 17.6383C11.2053 17.6634 11.2339 17.6792 11.2652 17.6858C16.2495 18.703 21.2389 19.6885 26.214 20.7505C27.925 21.1155 29.4429 20.877 30.9804 20.0272C36.944 16.7318 42.4564 12.7408 48.0392 8.85775C48.3457 8.6443 48.5778 8.23452 48.7069 7.86559C48.9964 7.03285 48.6873 6.1461 48.0157 5.61642C47.3076 5.05775 46.4743 5.00636 45.6449 5.49783C43.3745 6.84443 41.108 8.20026 38.8389 9.5495C38.6719 9.64832 38.4998 9.75241 38.3172 9.81039C37.9273 9.93292 37.6026 9.79589 37.3952 9.452C37.1762 9.08833 37.2179 8.72204 37.5243 8.4203C37.6495 8.29645 37.8125 8.20948 37.9664 8.11725C39.7296 7.06448 41.494 6.01302 43.2571 4.96024C43.4032 4.87328 43.544 4.77841 43.6992 4.68091C42.9546 3.95095 42.0613 3.8574 41.1549 4.39499C39.5287 5.35816 37.9091 6.33452 36.2815 7.29638C35.7299 7.62315 35.2291 7.52301 34.9749 7.06316C34.7271 6.61649 34.8927 6.17509 35.4404 5.84305C36.1094 5.43854 36.7823 5.04062 37.4813 4.62293H37.48ZM2.16923 12.0095C2.16923 14.8213 2.16923 17.6317 2.16923 20.4435C2.16923 21.1195 2.34007 21.2987 3.00124 21.3C4.8726 21.3039 6.74267 21.3039 8.61403 21.3C9.26347 21.2987 9.43691 21.1287 9.43691 20.4857C9.43952 14.8463 9.43952 9.20823 9.43691 3.56884C9.43691 2.93639 9.2739 2.77827 8.65576 2.77827C6.7844 2.77564 4.91434 2.77696 3.04297 2.77827C2.30616 2.77827 2.16793 2.91926 2.16793 3.67425C2.16793 6.4531 2.16793 9.23063 2.16793 12.0095H2.16923Z" fill="#55BC7E" stroke="#55BC7E" stroke-width="0.5"/>
</svg>
