<?xml version="1.0" encoding="utf-8"?>
<!-- Generator: Adobe Illustrator 24.1.3, SVG Export Plug-In . SVG Version: 6.00 Build 0)  -->
<svg version="1.1" id="Layer_1" xmlns="http://www.w3.org/2000/svg" xmlns:xlink="http://www.w3.org/1999/xlink" x="0px" y="0px"
	 viewBox="59.23 130.17 250 100" style="enable-background:new 0 0 360 360;" xml:space="preserve">
<style type="text/css">
	.st0{fill:url(#SVGID_1_);}
	.st1{fill-rule:evenodd;clip-rule:evenodd;fill:url(#SVGID_2_);}
	.st2{fill-rule:evenodd;clip-rule:evenodd;fill:#1D4FD7;}
	.st3{fill:#1D4FD7;}
</style>
<g>
	<linearGradient id="SVGID_1_" gradientUnits="userSpaceOnUse" x1="186.9648" y1="138.3779" x2="186.9648" y2="154.8875">
		<stop  offset="0" style="stop-color:#1D59D8"/>
		<stop  offset="1" style="stop-color:#1DD8D8"/>
	</linearGradient>
	<path class="st0" d="M193.77,146.31v15.64h-0.01l-0.2,0.09c-0.15,0.06-0.29,0.12-0.37,0.17c-0.25,0.11-0.51,0.23-0.76,0.36
		l-0.22,0.01l-0.19,0.17h-0.2l-0.28,0.29c-0.27,0.15-0.54,0.31-0.83,0.49c-1.89,1.16-3.66,2.59-5.24,4.23
		c-2.41,2.5-4.19,5.32-5.31,8.41v-30c0-0.83,0.21-1.64,0.63-2.44c0.41-0.8,0.93-1.49,1.56-2.08c0.62-0.59,1.33-1.06,2.13-1.41
		c0.8-0.34,1.61-0.48,2.45-0.41c0.9-0.07,1.76,0.09,2.59,0.47c0.84,0.38,1.58,0.88,2.24,1.5c0.66,0.63,1.16,1.37,1.51,2.24
		C193.57,144.78,193.73,145.54,193.77,146.31z"/>
	<linearGradient id="SVGID_2_" gradientUnits="userSpaceOnUse" x1="204.5604" y1="169.9823" x2="204.5604" y2="241.9837">
		<stop  offset="0.1613" style="stop-color:#1D59D8"/>
		<stop  offset="0.6935" style="stop-color:#1DD8D8"/>
	</linearGradient>
	<path class="st1" d="M228.49,179.66c-1.22-5.71-4.32-10.23-9.02-13.66c-5.46-4-11.62-5.45-18.26-4.61
		c-2.44,0.31-4.74,0.93-6.88,1.88c-0.07,0.03-0.14,0.06-0.21,0.09c-0.12,0.05-0.23,0.1-0.35,0.16c-0.3,0.13-0.6,0.28-0.9,0.44
		c-0.01,0.01-0.03,0.02-0.05,0.03c-0.02,0-0.04,0.01-0.05,0.02c-0.11,0.05-0.2,0.1-0.3,0.16c0,0-0.01,0.01-0.03,0.01
		c-0.01,0.01-0.01,0.01-0.03,0.02c-0.32,0.17-0.63,0.36-0.94,0.55c-1.78,1.09-3.44,2.42-4.96,4c-3.52,3.65-5.62,8-6.21,13.04
		c-0.07,0.54-0.1,1.09-0.11,1.64v0.11c-0.02,0.29-0.03,0.58-0.03,0.87c0,0.33,0.01,0.66,0.03,0.99v0.03
		c0.13,2.65,0.73,5.25,1.65,7.8c0.81,2.18,1.76,4.3,2.82,6.36c1.42,2.07,2.86,4.12,4.31,6.17c1.63,2.28,3.26,4.56,4.9,6.84
		c3.45,4.78,8.79,13.15,15.39,7.13c1.07-0.97,1.92-2.17,2.88-3.25c3.06-3.46,13.27-18.35,14.83-22.49c0.18-0.47,0.35-0.94,0.52-1.42
		c0.37-1.09,0.68-2.19,0.91-3.29C229.09,186.12,229.19,182.92,228.49,179.66z M204.54,199.25c-4.2,0-8.01-1.71-10.77-4.47
		c-2.75-2.75-4.45-6.55-4.45-10.75c0-1.59,0.24-3.12,0.71-4.55c0.06-0.19,0.13-0.38,0.19-0.57c0.07-0.19,0.14-0.38,0.22-0.57
		c0.07-0.18,0.14-0.35,0.22-0.53c0.09-0.22,0.2-0.44,0.31-0.65c0.02-0.03,0.03-0.07,0.05-0.1c0.01-0.03,0.03-0.06,0.05-0.09
		c0.14-0.27,0.28-0.53,0.44-0.79c0.01-0.02,0.02-0.03,0.03-0.05c0.14-0.23,0.29-0.46,0.44-0.68c0.14-0.22,0.3-0.43,0.46-0.64
		c0,0,0-0.01,0.01-0.02c0.01,0,0.02-0.01,0.03-0.02c0.11-0.14,0.22-0.28,0.34-0.42c0.06-0.08,0.12-0.15,0.18-0.23
		c0.07-0.08,0.14-0.16,0.21-0.24c0.17-0.21,0.36-0.4,0.56-0.59c0.08-0.08,0.17-0.16,0.25-0.24c0.09-0.09,0.18-0.17,0.26-0.25
		c0.37-0.35,0.75-0.67,1.16-0.97c0.19-0.15,0.39-0.29,0.6-0.42c0.22-0.16,0.45-0.3,0.69-0.45c0.18-0.11,0.37-0.22,0.56-0.31
		c0.22-0.13,0.43-0.24,0.66-0.34c0.22-0.11,0.44-0.21,0.67-0.3c0.2-0.09,0.4-0.17,0.6-0.24c0.49-0.19,1-0.35,1.52-0.48
		c0.24-0.07,0.49-0.12,0.74-0.17c0.24-0.05,0.49-0.1,0.73-0.13c0.76-0.12,1.54-0.18,2.33-0.18c0.01,0,0.01,0,0.02,0h0.27
		c0.14,0,0.29,0.01,0.43,0.02h0.09c0.25,0.01,0.5,0.03,0.75,0.06c0.22,0.02,0.44,0.05,0.66,0.09c0.06,0,0.13,0.01,0.19,0.03
		c0.27,0.04,0.53,0.09,0.79,0.14c0.25,0.06,0.5,0.12,0.75,0.19c0.21,0.06,0.43,0.12,0.65,0.19c0.04,0.01,0.08,0.02,0.11,0.04
		c0,0,0.01,0,0.02,0c1.23,0.41,2.42,0.97,3.52,1.68c0.4,0.26,0.78,0.53,1.15,0.82c0.16,0.12,0.31,0.24,0.45,0.37
		c0.26,0.2,0.5,0.42,0.73,0.66c0.13,0.11,0.24,0.22,0.35,0.35c0.36,0.35,0.69,0.73,0.99,1.13c0.15,0.19,0.3,0.38,0.44,0.58
		c1.81,2.5,2.86,5.56,2.86,8.87C219.76,192.44,212.95,199.25,204.54,199.25z"/>
	<path class="st2" d="M213.09,184.44c0,4.71-3.82,8.53-8.53,8.53s-8.53-3.82-8.53-8.53c0-4.71,3.82-8.53,8.53-8.53
		S213.09,179.72,213.09,184.44z"/>
	<g>
		<path class="st3" d="M113.65,173.22c4.99-3.12,7.28-8.22,7.28-14.66c0-12.79-9.68-20.39-23.61-20.39
			c-13.42,0-23.09,10.71-23.09,22.46l0.5,19.32l9.15-0.31l0.13-18.16c0-8.53,5.09-14.14,14.14-14.14c6.97,0,13,3.94,13,11.64
			c0,5.93-4.37,11.03-13.21,11.03H87.75v9.16h12.17c9.25,0,14.56,4.04,14.56,11.96c0,7.58-4.16,11.96-14.56,11.96H87.75v9.14h14.66
			c12.59,0,21.84-8.01,21.84-20.59C124.25,182.89,121.03,177.49,113.65,173.22z"/>
		<path class="st3" d="M163.09,162.31v29.11c0,7.7-5.62,13.11-12.17,13.11c-6.55,0-12.17-5.41-12.17-13.11v-29.11h-9.15v29.11
			c0,13.11,9.15,21.84,21.32,21.84c12.17,0,21.32-8.73,21.32-21.84v-29.11H163.09z"/>
		<path class="st3" d="M276.51,188.92c-1.87,9.16-5.93,15.61-16.74,15.61c-9.47,0-16.33-7.08-16.33-17.27
			c0-10.18,6.86-17.26,16.33-17.26c5.61,0,8.21,1.66,11.33,4.79l-24.65,13.72l3.75,7.28l33.7-18.71
			c-4.68-9.69-12.49-15.81-24.13-15.81c-13.84,0-25.9,10.6-25.9,25.99c0,15.4,12.06,26,25.9,26c14.35,0,24.96-9.97,26-23.18
			L276.51,188.92z"/>
	</g>
</g>
</svg>
