<svg width="46" height="50" viewBox="0 0 46 50" fill="none" xmlns="http://www.w3.org/2000/svg">
<path d="M29.2641 14.4365C27.2375 15.8026 25.2404 17.1502 23.2433 18.4979C21.6231 19.5907 20.0072 20.6879 18.38 21.7694C18.1015 21.9544 18.0326 22.1081 18.1409 22.4525C18.6781 24.1573 18.6739 25.8763 18.131 27.5811C18.0424 27.86 18.0635 28.018 18.3223 28.1901C21.934 30.6107 25.5372 33.0427 29.1432 35.4718C29.1713 35.4903 29.2065 35.4988 29.274 35.5273C29.4217 35.3523 29.5722 35.1644 29.7339 34.9851C32.3315 32.1305 35.51 31.1074 39.1737 32.26C42.836 33.4127 44.9399 36.0809 45.4294 39.9159C46.0454 44.75 42.5603 49.2226 37.7645 49.9099C32.9321 50.6029 28.402 47.2232 27.6566 42.3408C27.5554 41.6805 27.5638 40.9974 27.5793 40.3258C27.5863 40.0241 27.5371 39.8476 27.2783 39.674C23.4782 37.1239 19.6837 34.5653 15.8935 31.9996C15.6206 31.8146 15.449 31.7961 15.1734 32.0224C9.79528 36.4409 1.74923 33.3529 0.61848 26.4441C0.0123194 22.7342 1.76892 19.0272 5.04303 17.1061C8.21588 15.2462 12.2987 15.5764 15.1466 17.9486C15.4336 18.1876 15.6108 18.1862 15.9103 17.9827C19.6837 15.4227 23.4641 12.8755 27.2502 10.3368C27.5216 10.1546 27.5962 9.97246 27.5722 9.64659C27.2291 4.91785 30.6396 0.668667 35.2386 0.0766851C40.0316 -0.540912 44.3999 2.63388 45.2634 7.36546C46.006 11.4268 43.985 15.4782 40.3494 17.2157C36.6154 19.0002 32.2696 18.0468 29.6059 14.8577C29.5046 14.7368 29.4062 14.6116 29.2613 14.4351L29.2641 14.4365ZM14.0497 25.0509C14.1129 22.6005 12.0947 20.5001 9.61948 20.4446C7.17936 20.3891 5.12179 22.4055 5.05428 24.9157C4.98818 27.3819 6.97684 29.4723 9.45915 29.5463C11.9189 29.6203 13.9836 27.5982 14.0497 25.0509ZM36.4846 13.6211C38.9923 13.6282 41.0189 11.5919 41.0104 9.07453C41.0006 6.60129 38.9979 4.55924 36.5662 4.54359C34.0459 4.52651 32.001 6.58564 32.0151 9.12576C32.0277 11.5947 34.0361 13.6154 36.4846 13.6211ZM36.5099 36.3712C34.0319 36.3754 32.0207 38.399 32.0137 40.895C32.0066 43.3824 34.0333 45.4459 36.4874 45.4515C38.981 45.4572 41.0062 43.4152 41.0104 40.8907C41.0147 38.4061 38.9838 36.3669 36.5099 36.3712Z" fill="#0071BC"/>
</svg>
