<svg width="80" height="80" viewBox="0 0 80 80" fill="none" xmlns="http://www.w3.org/2000/svg">
<g id="Frame" clip-path="url(#clip0_518_20832)">
<path id="Vector" d="M80 39.9997C80 36.6946 73.5184 34.2848 72.704 31.2347C71.8597 28.0796 76.2438 22.7585 74.6451 19.9967C73.0255 17.193 66.2074 18.3412 63.9353 16.0663C61.6605 13.7947 62.8086 6.97665 60.0082 5.35437C57.2469 3.75888 51.922 8.14299 48.7669 7.29864C45.7168 6.48429 43.307 0 40.0013 0C36.6957 0 34.2859 6.48429 31.2358 7.29864C28.0807 8.14299 22.7558 3.7562 19.9945 5.35437C17.1941 6.97718 18.3417 13.7915 16.0669 16.0663C13.792 18.3412 6.97397 17.193 5.35437 19.9934C3.75567 22.7547 8.14299 28.0791 7.29864 31.2342C6.48429 34.2848 0 36.6946 0 39.9997C0 43.3048 6.48429 45.7147 7.29864 48.7647C8.14299 51.9198 3.75567 57.2442 5.35437 60.0055C6.97397 62.8059 13.792 61.6583 16.0669 63.9326C18.3385 66.2074 17.1909 73.0223 19.9945 74.6446C22.7558 76.2433 28.0807 71.8559 31.2358 72.7003C34.2827 73.5146 36.6925 79.9989 40.0013 79.9989C43.3102 79.9989 45.7168 73.5146 48.7669 72.7003C51.9193 71.8559 57.2437 76.2427 60.0055 74.6446C62.8091 73.0218 61.661 66.2074 63.9331 63.9326C66.208 61.6578 73.026 62.8059 74.6456 60.0055C76.2443 57.2442 71.8602 51.9198 72.7014 48.7647C73.5184 45.7147 80 43.3048 80 39.9997ZM35.6992 55.0138L23.0483 42.363L28.4965 36.9148L35.6992 44.1176L54.4588 25.358L59.9069 30.8056L35.6992 55.0133V55.0138Z" fill="#55BC7E"/>
</g>
<defs>
<clipPath id="clip0_518_20832">
<rect width="80" height="80" fill="white"/>
</clipPath>
</defs>
</svg>
